<svg width="18" height="19" viewBox="0 0 18 19" fill="none" xmlns="http://www.w3.org/2000/svg">
<path d="M8 19C9.10375 19 9.99906 18.1047 9.99906 17H6.00094C6.00094 18.1047 6.89625 19 8 19ZM14.7309 14.3216C14.1272 13.6728 12.9975 12.6969 12.9975 9.5C12.9975 7.07188 11.295 5.12812 8.99937 4.65125V4C8.99937 3.44781 8.55187 3 8 3C7.44812 3 7.00062 3.44781 7.00062 4V4.65125C4.705 5.12812 3.0025 7.07188 3.0025 9.5C3.0025 12.6969 1.87281 13.6728 1.26906 14.3216C1.08156 14.5231 0.998436 14.7641 0.999999 15C1.00344 15.5125 1.40562 16 2.00312 16H13.9969C14.5944 16 14.9969 15.5125 15 15C15.0016 14.7641 14.9184 14.5228 14.7309 14.3216Z" fill="#C5C7CD"/>
<circle cx="13" cy="5" r="3.75" fill="#3751FF" stroke="#F7F8FC" stroke-width="1.5"/>
</svg>
