<svg width="20" height="20" viewBox="0 0 20 20" fill="none" xmlns="http://www.w3.org/2000/svg">
<path d="M10 13.7501C8.02476 13.7501 6.42581 12.2212 6.27867 10.2837L3.5469 8.17246C3.18779 8.62298 2.85732 9.09928 2.59065 9.62012C2.53108 9.73796 2.50004 9.86815 2.50004 10.0002C2.50004 10.1322 2.53108 10.2624 2.59065 10.3803C4.00289 13.1357 6.79872 15.0001 10 15.0001C10.7008 15.0001 11.3768 14.8959 12.0284 14.7277L10.6771 13.6821C10.4539 13.7252 10.2273 13.748 10 13.7501ZM18.1724 15.2631L15.2935 13.0381C16.168 12.3011 16.8873 11.3975 17.4094 10.38C17.469 10.2622 17.5 10.132 17.5 9.99993C17.5 9.86789 17.469 9.7377 17.4094 9.61985C15.9972 6.86439 13.2013 5.00006 10 5.00006C8.65927 5.00169 7.34029 5.33922 6.16357 5.98183L2.85055 3.42116C2.80734 3.38754 2.75794 3.36276 2.70516 3.34825C2.65238 3.33373 2.59725 3.32976 2.54294 3.33655C2.48862 3.34335 2.43617 3.36078 2.38859 3.38785C2.34102 3.41493 2.29924 3.45111 2.26565 3.49433L1.75445 4.15241C1.68664 4.23964 1.65625 4.35024 1.66998 4.45988C1.6837 4.56952 1.74041 4.66921 1.82763 4.73704L17.1495 16.579C17.1927 16.6126 17.2421 16.6374 17.2949 16.6519C17.3477 16.6664 17.4028 16.6704 17.4571 16.6636C17.5114 16.6568 17.5639 16.6393 17.6115 16.6123C17.659 16.5852 17.7008 16.549 17.7344 16.5058L18.2459 15.8477C18.3136 15.7605 18.344 15.6498 18.3302 15.5402C18.3164 15.4306 18.2597 15.3309 18.1724 15.2631ZM13.388 11.5652L12.3646 10.774C12.4508 10.5249 12.4965 10.2636 12.5 10.0001C12.5051 9.61419 12.4196 9.23251 12.2504 8.88567C12.0812 8.53884 11.8331 8.23651 11.5258 8.00298C11.2186 7.76946 10.8609 7.61124 10.4815 7.54104C10.102 7.47083 9.71135 7.4906 9.34091 7.59876C9.49794 7.81155 9.58289 8.06894 9.58336 8.3334C9.57947 8.4214 9.56603 8.50872 9.54325 8.59381L7.62633 7.1123C8.29221 6.55585 9.13225 6.2507 10 6.25006C10.4926 6.24979 10.9803 6.3466 11.4354 6.53496C11.8905 6.72332 12.304 6.99953 12.6523 7.3478C13.0006 7.69608 13.2768 8.10958 13.4651 8.56468C13.6535 9.01977 13.7503 9.50753 13.75 10.0001C13.75 10.5633 13.6123 11.0883 13.388 11.5654V11.5652Z" fill="#9FA2B4"/>
</svg>
